<svg width="474" height="418" xmlns="http://www.w3.org/2000/svg"><g fill-rule="nonzero" fill="none"><path d="M19.5 58.5C70.167 25.833 104 17.667 121 34c25.5 24.5 117.5 80.5 144 52.5 17.667-18.667 57.167-28 118.5-28L474 284l-162.5 95.5v-119c-71.333-39.333-113.833-39.333-127.5 0-13.667 39.333-75 63.833-184 73.5 75-67.667 101-118.667 78-153S35.5 105.833 19.5 58.5z" fill="red"/><path d="M235 0C162.667 122.667 102.333 177 54 163c-72.5-21 134.5 110 134.5 150.5 0 27 24.333 39 73 36C343.5 242.167 404 191.333 443 197c58.5 8.5-189.5 41.5-189.5-14 0-37-6.167-98-18.5-183z" fill="#0C00FF"/><circle fill="#FFFA00" cx="144" cy="325" r="93"/><path fill="#1BB700" d="M202 0h217v213H202z"/></g></svg>